<?xml version="1.0" encoding="UTF-8" standalone="no"?>
<svg width="42px" height="48px" viewBox="0 0 42 48" version="1.1" xmlns="http://www.w3.org/2000/svg" xmlns:xlink="http://www.w3.org/1999/xlink" xmlns:sketch="http://www.bohemiancoding.com/sketch/ns">
    <!-- Generator: Sketch 3.1.1 (8761) - http://www.bohemiancoding.com/sketch -->
    <title>Mark 3</title>
    <desc>Created with Sketch.</desc>
    <defs></defs>
    <g id="Page-1" stroke="none" stroke-width="1" fill="none" fill-rule="evenodd" sketch:type="MSPage">
        <g id="PCPP---Frontpage" sketch:type="MSArtboardGroup" transform="translate(-579.000000, -264.000000)">
            <g id="Build-Guides" sketch:type="MSLayerGroup" transform="translate(120.000000, 164.000000)">
                <g id="Guide-Preview" transform="translate(430.000000, 60.000000)" sketch:type="MSShapeGroup">
                    <g id="Mark-3" transform="translate(29.000000, 40.000000)">
                        <path d="M27.9944882,30.5158356 L20.9110394,34.5813699 L20.9110394,23.952 L27.8559213,19.9656986 L27.9944882,30.5158356" id="Part-Side" fill="#EEA900"></path>
                        <path d="M18.6020315,14.6508493 L11.6511969,18.6371507 L20.9110394,23.952 L27.8559213,19.9656986 L18.6020315,14.6508493" id="Part-Top" fill="#FFDA45"></path>
                        <path d="M20.9110394,0.0216986301 L7.02127559,8.00745205 L7.00937008,15.9728219 L0.064488189,11.9868493 L0.064488189,35.9171507 L20.9110394,47.8823014 L20.9110394,39.8962192 L27.8559213,43.8821918 L41.745685,35.9102466 L41.745685,11.9927671 L20.9110394,0.0216986301 L20.9110394,0.0216986301 Z M18.5960787,43.896 L2.37944882,34.588274 L2.37944882,15.9728219 L18.5960787,25.2805479 L18.5960787,43.896 L18.5960787,43.896 Z M27.9944882,30.5158356 L20.9110394,34.5813699 L20.9110394,34.5816986 L20.9110394,23.952 L11.6631024,18.6440548 L11.6634331,18.6440548 L18.6020315,14.6508493 L27.8559213,19.9656986 L27.9944882,30.5158356 L27.9944882,30.5158356 Z M11.6511969,8.00745205 L20.9117008,2.68010959 L38.2752283,12.6568767 L29.0134016,17.9727123 L11.6511969,8.00745205 L11.6511969,8.00745205 Z M39.4307244,34.5826849 L30.1708819,39.8962192 L30.1708819,19.9656986 L39.4307244,14.6508493 L39.4307244,34.5826849 L39.4307244,34.5826849 Z" id="Computer-Outlines" fill="#303344"></path>
                        <path d="M20.9117008,2.68010959 L11.6511969,8.00745205 L29.0134016,17.9727123 L38.2752283,12.6568767 L20.9117008,2.68010959 Z M30.1708819,19.9656986 L39.4307244,14.6508493 L39.4307244,34.5826849 L30.1708819,39.8962192 L30.1708819,19.9656986 Z M2.37944882,15.9728219 L18.5960787,25.2805479 L18.5960787,43.896 L2.37944882,34.588274 L2.37944882,15.9728219 Z" id="Computer-Sides" fill="#CCCCCC"></path>
                    </g>
                </g>
            </g>
        </g>
    </g>
</svg>